<?xml version="1.0" standalone="no"?>
<!DOCTYPE svg PUBLIC "-//W3C//DTD SVG 20010904//EN"
 "http://www.w3.org/TR/2001/REC-SVG-20010904/DTD/svg10.dtd">
<svg version="1.0" xmlns="http://www.w3.org/2000/svg"
 width="424.000000pt" height="424.000000pt" viewBox="0 0 424.000000 424.000000"
 preserveAspectRatio="xMidYMid meet">
<metadata>
Created by potrace 1.14, written by Peter Selinger 2001-2017
</metadata>
<g transform="translate(0.000000,424.000000) scale(0.100000,-0.100000)"
fill="#000000" stroke="none">
<path d="M1862 3624 c-187 -24 -294 -69 -397 -167 l-54 -52 -3 -80 c-2 -81 3
-105 25 -105 8 0 8 3 -1 12 -7 7 -12 40 -12 78 0 39 4 60 9 52 6 -10 10 -7 13
11 4 20 1 24 -10 19 -12 -4 -11 1 4 21 13 17 26 25 39 22 11 -3 14 -2 7 1 -10
5 -10 9 -1 20 6 8 16 11 22 7 5 -3 7 -1 4 4 -8 13 70 66 84 58 5 -4 8 -1 7 7
-2 7 7 14 20 16 12 2 22 8 22 14 0 5 7 8 15 4 8 -3 15 -2 15 3 0 11 101 33
195 42 92 9 181 27 130 27 -16 -1 -77 -7 -133 -14z"/>
<path d="M2175 3590 c3 -6 39 -28 78 -50 68 -38 184 -128 127 -99 -14 7 -34
13 -45 15 -11 1 -27 5 -36 9 -19 7 -34 -31 -17 -42 7 -3 8 -1 4 5 -4 7 -5 12
-2 12 10 0 81 -42 96 -57 13 -14 12 -14 -10 -8 -19 5 -21 4 -10 -4 8 -6 22 -8
31 -6 9 3 29 -10 49 -30 19 -19 29 -35 23 -35 -7 0 -15 5 -18 11 -4 6 -14 8
-22 5 -8 -3 -27 1 -44 9 -44 23 -35 11 18 -24 60 -40 39 -40 -32 0 -30 17 -55
28 -55 26 0 -3 9 -22 21 -42 12 -19 18 -42 15 -51 -5 -12 -2 -15 9 -10 9 3 14
2 11 -2 -3 -5 1 -33 9 -62 9 -34 11 -59 5 -70 -5 -9 -11 -28 -14 -42 -3 -19 0
-25 12 -24 10 0 16 -5 14 -11 -1 -7 2 -13 8 -13 5 0 10 -7 10 -15 0 -8 4 -15
10 -15 5 0 7 15 5 33 -5 30 -4 30 4 5 5 -14 12 -31 15 -36 3 -5 -2 -16 -11
-23 -9 -8 -14 -9 -10 -3 3 6 -5 16 -19 23 -15 7 -22 16 -18 23 5 7 2 9 -8 5
-19 -7 -30 24 -23 63 3 14 2 19 -1 11 -4 -9 -16 10 -30 50 -20 56 -22 66 -9
79 13 13 15 10 15 -17 0 -18 5 -35 10 -38 6 -4 8 -11 5 -16 -4 -5 -1 -9 5 -9
6 0 8 10 4 28 -12 50 -24 73 -33 68 -5 -4 -11 -3 -14 1 -2 5 -2 3 -1 -4 2 -7
-1 -15 -6 -18 -10 -6 -14 14 -12 50 2 16 0 17 -7 5 -15 -22 -24 -5 -11 22 10
20 10 21 -3 6 -8 -10 -17 -15 -20 -11 -13 12 -7 -10 12 -46 29 -54 73 -171 69
-183 -2 -6 -10 9 -18 33 -8 24 -27 69 -42 99 -30 60 -29 39 3 -64 22 -67 23
-76 9 -76 -6 0 -9 3 -9 8 1 4 0 16 -1 27 -2 14 -4 11 -9 -10 -7 -30 -7 -30
-26 20 -10 28 -22 54 -27 59 -4 6 -8 18 -8 28 0 10 -5 18 -11 18 -11 0 -9 -18
7 -67 3 -10 -18 22 -46 70 -52 88 -78 111 -45 40 10 -21 20 -42 22 -46 3 -5
-4 -3 -15 4 -12 7 -19 16 -17 20 3 3 -9 21 -25 39 -17 19 -28 36 -25 38 8 8
-15 42 -28 41 -9 0 -9 -2 1 -6 22 -9 13 -22 -13 -19 -14 2 -38 15 -53 29 -48
46 -57 36 -61 -67 -1 -35 -8 -64 -17 -73 -7 -8 -17 -26 -20 -41 -10 -46 -12
-48 -14 -12 -6 94 -9 135 -10 140 -1 3 -1 19 -1 35 2 23 0 27 -8 15 -6 -8 -11
-25 -11 -37 0 -13 -4 -23 -9 -23 -5 0 -12 -12 -14 -27 -2 -16 -5 -1 -5 32 -1
36 4 70 13 85 22 39 17 59 -5 22 -12 -19 -32 -75 -45 -124 -13 -50 -27 -93
-30 -97 -4 -3 -4 5 -1 19 26 118 49 198 66 237 11 25 20 55 19 67 0 19 -1 19
-12 -4 -38 -86 -48 -115 -67 -200 -12 -52 -27 -109 -35 -126 -8 -18 -17 -48
-20 -68 -4 -20 -11 -36 -15 -36 -4 0 -4 19 0 42 6 31 4 45 -7 56 -8 9 -12 25
-9 41 14 74 27 203 22 208 -26 26 -84 -152 -111 -339 -3 -21 -10 -38 -16 -38
-6 0 -8 4 -5 9 4 5 0 12 -6 14 -10 4 -10 6 0 6 6 1 12 11 12 23 0 17 -3 19
-12 10 -11 -11 -19 -71 -9 -70 20 2 31 -3 26 -13 -4 -6 -9 -8 -12 -5 -3 3 -12
-2 -21 -10 -20 -21 -38 -3 -23 24 16 30 13 39 -4 16 -14 -18 -15 -17 -9 11 4
17 11 40 15 52 6 15 2 36 -9 64 l-18 42 4 -67 c5 -84 -13 -129 -73 -180 -24
-20 -47 -36 -52 -36 -8 0 -13 -12 -68 -155 -22 -57 -58 -167 -101 -309 -4 -12
-2 -16 5 -12 7 5 9 -2 6 -21 -3 -15 -7 -48 -9 -73 -3 -25 -7 -65 -11 -90 -3
-28 0 -63 10 -95 11 -38 14 -41 10 -15 -3 19 -8 49 -11 65 l-6 30 17 -30 c14
-24 16 -47 12 -119 -6 -87 -18 -124 -31 -91 -3 9 -2 13 4 10 24 -15 -1 163
-28 200 l-14 20 5 -20 c34 -135 34 -150 -12 -246 -17 -35 -29 -65 -27 -67 5
-4 46 67 46 79 0 17 19 9 34 -13 10 -16 16 -54 17 -115 2 -90 1 -92 -32 -135
-19 -23 -28 -39 -21 -34 6 4 37 40 66 79 30 40 68 87 85 106 17 18 31 36 31
40 0 6 -67 -65 -102 -109 l-19 -25 5 64 c3 35 6 72 6 83 0 10 6 21 13 23 6 2
26 9 42 15 17 6 32 11 35 11 3 0 13 7 22 16 10 8 24 13 33 9 9 -3 14 -2 11 3
-3 4 6 13 20 20 30 13 37 14 29 2 -3 -5 0 -13 6 -17 8 -4 9 -3 5 4 -4 7 -1 12
6 12 9 0 9 3 -2 10 -12 8 -8 10 15 11 25 1 26 2 7 6 -13 3 -44 -5 -70 -18 -78
-36 -185 -79 -189 -75 -2 2 5 48 16 102 26 126 61 351 62 401 l1 38 19 -55
c10 -30 17 -44 15 -30 -12 72 -18 124 -13 120 2 -3 14 -41 26 -85 30 -107 107
-267 164 -337 44 -53 46 -57 24 -60 -15 -2 -31 -20 -50 -56 -39 -71 -28 -78
12 -8 27 49 34 55 61 53 16 -1 30 -5 30 -9 0 -5 -3 -8 -8 -8 -20 0 -70 -156
-88 -280 -23 -151 -16 -269 21 -340 45 -88 81 -135 198 -259 61 -64 127 -137
147 -162 36 -45 37 -46 50 -25 12 19 12 20 -3 8 -13 -11 -20 -7 -48 35 -32 45
-71 131 -109 238 -98 276 -119 366 -102 450 17 85 108 216 174 251 15 8 45 14
67 14 37 0 41 3 49 33 5 17 9 32 8 33 -1 0 -32 17 -71 38 -38 20 -62 31 -52
23 17 -14 17 -15 -1 -19 -10 -3 -42 0 -71 6 -51 10 -54 12 -82 68 -16 32 -29
60 -29 63 0 3 17 -7 37 -22 22 -16 7 3 -33 42 -80 80 -91 107 -97 244 l-4 84
19 -26 c10 -14 28 -36 39 -49 l20 -23 -14 30 c-8 17 -18 46 -22 65 -4 19 -13
55 -21 79 -23 69 11 142 65 140 14 0 20 -3 13 -6 -21 -8 -42 -59 -42 -102 0
-43 14 -82 42 -120 24 -31 23 -20 -2 23 -13 24 -15 33 -6 30 8 -3 20 3 27 13
9 11 29 19 53 20 22 1 42 6 45 11 3 4 14 11 23 15 16 6 16 10 3 47 -16 46 -4
55 15 10 7 -16 18 -34 25 -40 6 -5 1 13 -12 40 -13 28 -31 81 -38 118 -17 76
-18 250 -4 332 5 30 12 70 16 88 9 55 23 46 23 -15 1 -108 63 -371 92 -389 8
-5 9 -2 3 12 -23 55 -54 254 -35 224 5 -8 10 -23 10 -33 0 -56 111 -259 189
-347 l31 -35 -25 46 c-73 135 -136 436 -125 594 l5 69 38 -44 c89 -104 153
-223 191 -355 31 -107 32 -125 6 -132 -11 -3 -26 -18 -34 -34 -14 -28 -10 -38
10 -20 5 5 19 12 32 16 23 7 23 6 8 -23 -22 -42 -23 -140 -2 -178 36 -66 72
-89 125 -77 24 5 91 74 91 94 0 13 -28 11 -36 -3 -4 -7 -3 -8 4 -4 23 14 11
-16 -17 -45 -41 -40 -91 -40 -132 0 -39 39 -38 65 4 82 41 17 57 20 57 8 0
-14 28 -11 33 4 4 7 6 6 6 -4 1 -26 26 -30 45 -7 10 11 24 17 33 14 13 -5 15
1 11 46 -5 46 -4 50 8 33 18 -24 11 -235 -13 -395 -13 -93 -18 -108 -44 -132
-54 -50 -66 -238 -16 -257 12 -5 46 -11 76 -14 57 -6 71 -17 71 -57 0 -73
-148 -362 -229 -447 -12 -12 -21 -26 -21 -30 0 -4 -18 -27 -40 -51 -21 -23
-37 -49 -34 -56 3 -8 1 -17 -5 -21 -7 -3 -8 0 -5 9 11 30 -15 16 -43 -21 -15
-21 -46 -60 -68 -88 -23 -27 -59 -75 -80 -105 -38 -53 -36 -53 41 26 43 45 97
93 119 106 22 14 104 47 183 73 120 40 151 54 195 91 154 132 275 320 322 501
17 65 12 81 -49 157 -26 31 -42 56 -37 56 6 0 12 -4 15 -9 3 -4 26 -14 51 -21
29 -8 56 -25 75 -46 16 -19 36 -34 45 -34 8 0 15 -3 15 -8 0 -4 9 -13 20 -20
11 -7 20 -11 20 -9 0 7 -37 47 -44 47 -4 0 -15 8 -26 18 -18 16 -17 17 26 13
29 -2 53 3 69 13 13 9 35 16 47 17 l23 0 -22 9 c-13 5 -23 15 -23 23 0 7 -11
87 -26 176 -14 90 -24 172 -22 183 2 14 13 6 47 -38 25 -32 45 -67 44 -78 -1
-12 1 -15 4 -8 3 6 10 9 15 6 20 -13 8 5 -164 236 -64 85 -126 165 -139 177
l-24 22 3 -87 c2 -76 32 -436 47 -560 3 -24 1 -42 -3 -40 -47 25 -85 37 -94
32 -6 -4 -8 -3 -5 3 4 6 -33 14 -100 21 -58 6 -110 15 -116 21 -6 6 -1 37 16
93 14 46 31 102 37 126 6 23 13 42 15 42 2 0 2 -33 0 -72 -4 -69 -4 -71 5 -23
5 28 11 116 12 197 2 82 6 148 9 148 10 0 39 -65 39 -87 0 -10 -7 -30 -14 -45
-24 -46 -9 -32 27 25 30 48 61 118 85 192 5 17 15 29 23 27 28 -7 -79 96 -121
116 -25 12 -58 33 -75 48 -16 14 -41 35 -54 45 -27 22 -48 77 -57 152 l-6 53
45 37 c29 23 44 43 42 54 -2 10 -4 62 -4 116 -1 56 -5 97 -11 97 -5 0 -32 17
-59 38 -49 36 -171 107 -171 99 0 -2 27 -21 60 -41 70 -43 81 -58 16 -22 -24
13 -47 22 -50 19 -3 -4 -6 -2 -6 4 0 6 -8 10 -17 9 -10 0 -17 4 -16 10 1 7 -6
10 -16 7 -10 -3 -22 0 -25 6 -4 6 -14 11 -22 11 -8 0 -12 -5 -9 -10z m-154
-317 c12 -16 12 -17 -2 -6 -9 7 -19 10 -22 6 -4 -3 -7 -1 -7 5 0 17 16 15 31
-5z m-304 -165 c-3 -7 -5 -2 -5 12 0 14 2 19 5 13 2 -7 2 -19 0 -25z m188 -35
c4 -38 8 -78 9 -90 0 -13 4 -23 9 -23 4 0 7 -7 7 -15 0 -21 -20 -19 -21 3 -1
9 -3 24 -3 32 -3 24 -17 113 -22 138 -2 12 0 22 4 22 5 0 13 -30 17 -67z
m-209 -65 c0 -78 7 -148 17 -191 9 -38 17 -70 17 -72 0 -2 -12 3 -27 11 -16 7
-42 17 -59 20 l-31 6 9 56 c7 45 68 292 72 292 1 0 1 -55 2 -122z m691 40 c-3
-8 -6 -5 -6 6 -1 11 2 17 5 13 3 -3 4 -12 1 -19z m-745 -50 c-8 -8 -9 -4 -5
13 4 13 8 18 11 10 2 -7 -1 -18 -6 -23z m638 1 c0 -5 4 -8 9 -4 6 3 9 -3 9
-12 0 -10 3 -42 7 -70 4 -30 4 -53 -1 -53 -22 1 -33 19 -36 63 -2 26 -6 47
-10 47 -4 0 -6 9 -5 20 1 20 27 29 27 9z m-87 -70 c27 -80 29 -99 12 -99 -8 0
-15 6 -16 13 0 6 -2 21 -4 32 -2 11 -7 36 -10 55 -3 19 -8 44 -11 55 -9 35 13
-7 29 -56z m142 -13 c8 -31 15 -66 15 -77 0 -29 -23 -18 -26 12 -1 13 -5 48
-8 78 -7 66 0 62 19 -13z m83 4 c5 0 15 7 22 15 7 9 15 13 18 10 6 -6 -37 -45
-50 -45 -5 0 -6 -5 -3 -11 4 -6 13 -8 21 -5 8 3 11 0 7 -10 -3 -7 -9 -14 -14
-14 -5 0 -9 -7 -9 -15 0 -21 28 -19 33 3 4 13 5 12 6 -5 0 -12 -4 -25 -10 -28
-7 -5 -2 -16 12 -31 12 -13 20 -26 17 -29 -3 -3 -22 16 -42 42 -24 31 -33 50
-26 57 14 14 13 29 -2 20 -8 -5 -9 0 -5 15 3 12 0 27 -7 34 -7 6 -15 21 -19
32 -6 15 -2 14 17 -7 14 -16 29 -28 34 -28z m-874 -27 c4 -38 9 -78 12 -89 4
-14 0 -23 -12 -28 -15 -6 -16 0 -11 51 4 37 3 51 -3 38 -5 -11 -9 -44 -9 -72
-1 -29 -5 -53 -9 -53 -10 0 -32 -60 -32 -87 0 -28 25 -85 33 -76 4 3 7 2 8 -3
1 -13 6 -39 13 -65 11 -42 -41 64 -60 120 -14 43 -15 57 -5 73 7 11 10 29 7
41 -3 12 -3 16 0 10 13 -28 22 -9 28 60 4 39 8 80 9 90 1 9 5 17 9 17 4 0 8 7
8 15 0 13 -3 13 -20 3 -11 -7 -21 -26 -23 -48 l-4 -35 -1 37 c-2 28 3 41 20
52 12 9 25 16 29 16 3 0 9 -30 13 -67z m956 22 c9 -10 9 -15 1 -15 -6 0 -11
-6 -11 -13 0 -8 -7 -14 -15 -14 -8 0 -12 4 -9 9 3 4 0 8 -5 8 -6 0 -11 5 -11
11 0 8 4 9 13 0 14 -11 27 -5 27 11 0 5 -4 6 -10 3 -5 -3 -10 -1 -10 4 0 16
16 13 30 -4z m-500 -185 c20 -39 2 -18 -35 41 -18 29 -30 59 -27 67 3 10 1 13
-6 8 -8 -5 -10 -1 -5 10 4 10 2 15 -4 11 -12 -8 -11 36 1 45 5 3 22 -30 36
-75 15 -45 32 -93 40 -107z m379 91 c1 -38 -12 -15 -15 27 -2 28 -1 32 6 17 5
-11 9 -31 9 -44z m-954 -36 c5 -51 4 -66 -4 -55 -8 11 -11 11 -11 2 0 -7 6
-15 14 -18 15 -6 52 -136 43 -151 -4 -7 2 -60 26 -218 2 -16 2 -22 0 -12 -2 9
-9 14 -15 11 -13 -8 -28 14 -28 44 0 13 -4 20 -10 17 -6 -4 -7 1 -3 11 4 11 2
15 -4 11 -11 -7 -28 37 -24 61 1 6 -2 12 -8 12 -5 0 -13 25 -16 55 -4 30 -11
58 -16 61 -16 9 -10 50 11 77 21 26 27 53 10 42 -5 -3 -10 0 -11 7 0 7 -4 4
-9 -7 -8 -18 -9 -17 -9 7 -1 22 3 26 19 23 18 -3 20 2 20 53 0 78 17 55 25
-33z m180 46 c-6 -21 -25 -29 -25 -11 0 6 5 10 10 10 6 0 10 8 10 17 0 9 3 14
6 10 3 -3 3 -15 -1 -26z m922 -60 c-3 -19 -5 -15 -6 14 -2 40 -2 40 -16 15
-10 -18 -14 -20 -15 -8 0 9 -2 22 -3 30 -2 7 -2 10 0 6 9 -16 23 -7 24 15 1
16 3 14 10 -12 6 -18 8 -45 6 -60z m-224 72 c-7 -2 -21 -2 -30 0 -10 3 -4 5
12 5 17 0 24 -2 18 -5z m-929 -48 c-4 -8 -8 -15 -10 -15 -2 0 -4 7 -4 15 0 8
4 15 10 15 5 0 7 -7 4 -15z m1211 -3 c-3 -3 -11 0 -18 7 -9 10 -8 11 6 5 10
-3 15 -9 12 -12z m-145 -43 c0 -6 -4 -7 -10 -4 -5 3 -10 11 -10 16 0 6 5 7 10
4 6 -3 10 -11 10 -16z m30 -25 c4 12 7 0 8 -32 0 -29 -3 -52 -8 -52 -4 0 -8
10 -8 23 0 12 -3 36 -6 52 -3 17 -3 21 1 10 6 -20 6 -20 13 -1z m-1000 -4 c0
-5 -2 -10 -4 -10 -3 0 -8 5 -11 10 -3 6 -1 10 4 10 6 0 11 -4 11 -10z m1017
-160 c7 -108 -13 -268 -46 -358 -32 -87 -69 -172 -75 -172 -2 0 1 20 7 45 6
24 14 42 18 39 5 -3 7 1 4 8 -3 7 -1 27 4 43 5 17 10 23 11 15 0 -9 8 -3 17
14 21 39 42 207 43 335 0 112 10 130 17 31z m373 -37 c0 -22 -8 -14 -19 20
-10 29 -9 30 4 13 8 -11 15 -26 15 -33z m-43 -40 c-2 -16 -4 -5 -4 22 0 28 2
40 4 28 2 -13 2 -35 0 -50z m20 -5 c-3 -7 -5 -2 -5 12 0 14 2 19 5 13 2 -7 2
-19 0 -25z m57 6 c3 -8 2 -12 -4 -9 -6 3 -10 10 -10 16 0 14 7 11 14 -7z m-35
-11 c-1 -10 1 -30 5 -44 4 -14 3 -41 -3 -60 l-11 -34 5 33 c2 17 0 43 -5 56
-5 13 -6 33 -3 45 6 25 15 28 12 4z m62 -48 c5 4 9 1 9 -4 0 -6 -6 -11 -13
-11 -8 0 -12 -13 -10 -42 l2 -43 -9 35 c-6 19 -7 51 -3 70 5 28 7 31 11 12 2
-12 8 -20 13 -17z m-85 -38 c1 -39 1 -40 -8 -14 -8 23 -6 57 4 57 2 0 4 -19 4
-43z m97 -42 c4 -34 3 -42 -3 -25 -8 25 -13 87 -6 79 2 -2 6 -26 9 -54z
m-1739 -70 c-18 -38 -35 -48 -27 -15 3 11 9 18 13 15 9 -6 19 28 22 75 l1 35
4 -37 c3 -22 -3 -52 -13 -73z m1683 38 c-3 -10 -5 -4 -5 12 0 17 2 24 5 18 2
-7 2 -21 0 -30z m-381 -49 c-8 -27 -15 -40 -15 -30 -1 22 21 88 27 82 2 -2 -3
-26 -12 -52z m382 -6 c23 -67 41 -168 26 -155 -4 4 -9 20 -10 35 -4 62 -7 64
-19 12 l-13 -55 3 80 c2 65 1 71 -5 30 -6 -47 -7 -48 -10 -15 -2 19 -3 50 -1
68 1 20 -2 31 -8 28 -5 -3 -7 3 -4 14 9 33 18 23 41 -42z m-1375 27 c-3 -9 -8
-14 -10 -11 -3 3 -2 9 2 15 9 16 15 13 8 -4z m1444 -27 c-3 -7 -5 -2 -5 12 0
14 2 19 5 13 2 -7 2 -19 0 -25z m-1442 -103 c16 -17 24 -23 21 -12 -3 9 -3 17
0 17 11 0 34 -29 34 -43 0 -8 7 -20 15 -27 8 -7 12 -17 8 -23 -3 -5 -2 -7 4
-4 5 3 20 -7 32 -23 21 -29 17 -42 -7 -18 -8 8 -15 8 -25 0 -10 -9 -16 -7 -27
8 -7 10 -18 16 -23 13 -6 -3 -7 -1 -3 5 4 7 1 12 -7 12 -24 0 -40 26 -28 48 7
14 6 24 -4 38 -30 39 -75 109 -75 118 0 5 13 -10 30 -35 16 -24 41 -57 55 -74z
m14 51 c-3 -3 -11 5 -18 17 -13 21 -12 21 5 5 10 -10 16 -20 13 -22z m1438 12
c-3 -8 -6 -5 -6 6 -1 11 2 17 5 13 3 -3 4 -12 1 -19z m-534 -3 c-3 -9 -8 -14
-10 -11 -3 3 -2 9 2 15 9 16 15 13 8 -4z m-35 -42 c-9 -35 -28 -68 -28 -49 0
20 24 86 31 86 4 0 3 -17 -3 -37z m-877 10 c13 -16 12 -17 -3 -4 -10 7 -18 15
-18 17 0 8 8 3 21 -13z m843 -20 c-8 -33 -18 -47 -33 -42 -7 3 -3 16 9 37 24
39 32 41 24 5z m98 -6 c3 -16 0 -24 -9 -24 -8 0 -11 7 -8 14 3 8 5 19 5 24 0
18 8 9 12 -14z m465 -89 c-3 -8 -6 -5 -6 6 -1 11 2 17 5 13 3 -3 4 -12 1 -19z
m-1266 -35 c13 -16 12 -17 -3 -4 -10 7 -18 15 -18 17 0 8 8 3 21 -13z m30 -50
c13 -16 12 -17 -3 -4 -10 7 -18 15 -18 17 0 8 8 3 21 -13z m829 -22 c0 -5 -7
-12 -16 -15 -14 -5 -15 -4 -4 9 14 17 20 19 20 6z m159 -95 c5 -22 6 -35 2
-30 -9 9 -27 83 -18 74 3 -3 10 -23 16 -44z m-1059 14 c0 -5 -7 -10 -16 -10
-8 0 -12 5 -9 10 3 6 10 10 16 10 5 0 9 -4 9 -10z m1090 -35 c0 -5 -5 -3 -10
5 -5 8 -10 20 -10 25 0 6 5 3 10 -5 5 -8 10 -19 10 -25z m-1130 -61 c0 -3 -7
-1 -15 6 -8 7 -15 17 -15 22 0 5 7 3 15 -6 8 -8 15 -18 15 -22z m1140 32 c0
-3 -4 -8 -10 -11 -5 -3 -10 -1 -10 4 0 6 5 11 10 11 6 0 10 -2 10 -4z m-1180
-36 c0 -5 -5 -10 -11 -10 -5 0 -7 5 -4 10 3 6 8 10 11 10 2 0 4 -4 4 -10z
m1123 -31 c-4 -15 -9 -17 -17 -9 -8 8 -7 13 4 20 8 5 16 10 17 10 0 0 -1 -9
-4 -21z m-1093 1 c0 -5 -4 -10 -10 -10 -5 0 -10 5 -10 10 0 6 5 10 10 10 6 0
10 -4 10 -10z m1120 -104 c-9 -8 -11 -6 -5 11 5 18 3 22 -9 17 -10 -4 -16 -1
-16 9 0 24 -13 27 -56 12 -38 -13 -39 -15 -36 -54 3 -31 0 -41 -11 -41 -17 0
-28 45 -14 59 5 5 6 14 3 20 -16 25 -23 8 -21 -46 3 -50 2 -53 -5 -23 -5 19
-7 43 -3 54 3 12 1 16 -6 12 -6 -4 -11 -2 -11 4 0 12 97 60 120 59 13 -1 13
-1 0 -6 -59 -22 -81 -34 -76 -42 4 -5 19 -3 38 6 17 9 44 16 60 16 21 0 28 5
29 21 0 12 7 -1 15 -28 12 -37 13 -51 4 -60z m-1197 74 c-3 -11 -10 -23 -16
-27 -5 -3 -8 -2 -5 3 3 5 8 17 11 27 9 24 16 22 10 -3z m15 -36 c0 -18 -3 -22
-9 -13 -6 11 -9 11 -13 -1 -14 -44 -14 -45 -15 -27 -1 14 26 64 35 67 1 0 2
-12 2 -26z m1139 0 c-3 -3 -12 -4 -19 -1 -8 3 -5 6 6 6 11 1 17 -2 13 -5z
m-1055 -16 c-5 -7 -13 -46 -17 -85 -7 -70 -15 -87 -31 -61 -4 7 -3 8 4 4 12
-7 16 20 14 107 0 20 4 35 9 32 5 -4 9 -1 9 4 0 6 5 11 11 11 8 0 8 -4 1 -12z
m-42 -62 c0 -26 -6 -18 -14 19 -5 22 -4 26 4 15 5 -8 10 -24 10 -34z m-40 1
c0 -5 -4 -5 -10 -2 -5 3 -10 14 -10 23 0 15 2 15 10 2 5 -8 10 -19 10 -23z
m1169 -27 c-20 -29 -42 -50 -52 -50 -10 0 -15 5 -12 10 3 6 13 10 20 10 19 0
39 37 23 42 -7 3 -9 12 -5 22 4 9 12 14 18 10 8 -5 8 -9 -1 -14 -9 -5 -9 -9
-1 -14 6 -4 16 4 23 18 6 15 13 24 16 21 3 -3 -10 -27 -29 -55z m-73 20 c16 0
49 -28 42 -35 -2 -2 -22 2 -43 10 -22 8 -35 14 -28 15 6 0 10 8 8 18 -1 9 0
11 2 5 3 -7 11 -13 19 -13z m-47 -77 c0 -31 -2 -34 -9 -18 -5 12 -9 14 -9 6
-1 -8 -3 -12 -6 -9 -6 6 12 58 20 58 3 0 5 -17 4 -37z m71 -12 c0 -4 -8 -15
-19 -25 -16 -15 -19 -15 -31 -1 -9 11 -9 15 -1 15 7 0 10 4 7 8 -2 4 6 9 20
10 13 1 24 -2 24 -7z m-328 -84 c-12 -13 -19 -27 -15 -30 3 -4 1 -7 -5 -7 -7
0 -12 2 -12 5 0 11 44 65 48 60 3 -3 -4 -16 -16 -28z m23 -16 c-3 -6 -11 -11
-17 -11 -6 0 -6 6 2 15 14 17 26 13 15 -4z m142 3 c-3 -3 -12 -4 -19 -1 -8 3
-5 6 6 6 11 1 17 -2 13 -5z m-67 -38 c0 -3 -4 -8 -10 -11 -5 -3 -10 -1 -10 4
0 6 5 11 10 11 6 0 10 -2 10 -4z m-813 -28 c-3 -8 -6 -5 -6 6 -1 11 2 17 5 13
3 -3 4 -12 1 -19z m65 -3 c3 -13 1 -22 -3 -19 -5 3 -9 -3 -9 -12 0 -10 -2 -15
-5 -12 -5 5 5 68 10 68 2 0 5 -11 7 -25z m745 -11 c-3 -3 -12 -4 -19 -1 -8 3
-5 6 6 6 11 1 17 -2 13 -5z m-237 -98 c0 -2 -8 -10 -17 -17 -16 -13 -17 -12
-4 4 13 16 21 21 21 13z m-59 -40 c-1 -3 -4 -7 -8 -8 -5 0 -14 -8 -21 -17 -10
-12 -12 -13 -6 -1 16 33 38 49 35 26z"/>
<path d="M1380 2623 c0 -5 5 -15 10 -23 8 -12 10 -11 10 8 0 12 -4 22 -10 22
-5 0 -10 -3 -10 -7z"/>
<path d="M1391 2564 c0 -11 3 -14 6 -6 3 7 2 16 -1 19 -3 4 -6 -2 -5 -13z"/>
<path d="M1461 2395 c1 -19 18 -51 18 -35 0 8 -4 22 -9 30 -5 8 -9 11 -9 5z"/>
<path d="M1506 2104 c-8 -21 1 -34 24 -34 10 0 26 -10 34 -22 9 -12 18 -19 22
-15 3 3 -1 13 -10 22 -9 9 -16 19 -16 23 0 4 -11 15 -24 24 -22 16 -25 16 -30
2z"/>
<path d="M2661 1694 c0 -11 3 -14 6 -6 3 7 2 16 -1 19 -3 4 -6 -2 -5 -13z"/>
<path d="M2542 1640 c0 -14 2 -19 5 -12 2 6 2 18 0 25 -3 6 -5 1 -5 -13z"/>
<path d="M2585 1500 c-3 -5 -1 -10 4 -10 6 0 11 5 11 10 0 6 -2 10 -4 10 -3 0
-8 -4 -11 -10z"/>
<path d="M2611 3584 c0 -11 3 -14 6 -6 3 7 2 16 -1 19 -3 4 -6 -2 -5 -13z"/>
<path d="M1179 3562 c8 -6 11 -18 6 -31 -4 -12 -2 -21 4 -21 6 0 11 -12 11
-26 0 -14 4 -23 10 -19 6 3 10 1 10 -6 0 -7 2 -10 5 -7 9 9 -30 112 -45 116
-12 3 -12 2 -1 -6z"/>
<path d="M2741 3540 c-10 -16 -22 -27 -27 -22 -4 4 -3 0 3 -8 6 -8 16 -32 22
-52 18 -54 37 -48 45 12 4 29 12 50 19 50 7 0 6 4 -3 10 -10 7 -11 10 -2 10
21 0 26 -29 13 -79 -7 -25 -16 -62 -20 -81 l-9 -35 -1 33 c-1 29 -21 48 -21
20 0 -28 28 -102 33 -88 10 29 30 135 34 182 5 44 3 48 -26 62 -39 21 -38 21
-60 -14z m28 -32 c-4 -24 -9 -47 -9 -53 -1 -5 -5 0 -10 13 -9 22 -5 47 13 70
14 18 15 16 6 -30z"/>
<path d="M1121 3551 c-16 -10 -11 -55 19 -183 17 -76 17 -78 -2 -84 -17 -5
-55 -71 -46 -80 6 -5 76 92 83 116 4 14 2 26 -8 33 -13 11 -37 108 -37 146 1
30 30 -20 30 -51 0 -19 5 -28 16 -28 14 0 15 7 9 43 -4 23 -8 51 -8 62 -1 31
-28 44 -56 26z m29 -11 c-10 -6 -11 -10 -2 -10 6 0 12 -5 12 -10 0 -7 -7 -7
-21 1 -17 9 -19 13 -8 20 8 5 19 9 24 9 6 0 3 -5 -5 -10z"/>
<path d="M2682 3490 c0 -14 2 -19 5 -12 2 6 2 18 0 25 -3 6 -5 1 -5 -13z"/>
<path d="M1232 3395 c0 -16 2 -22 5 -12 2 9 2 23 0 30 -3 6 -5 -1 -5 -18z"/>
<path d="M1167 3403 c-10 -10 -8 -43 2 -43 9 0 21 24 21 41 0 11 -14 12 -23 2z"/>
<path d="M2270 3390 c0 -5 5 -10 11 -10 5 0 7 5 4 10 -3 6 -8 10 -11 10 -2 0
-4 -4 -4 -10z"/>
<path d="M2240 3381 c0 -6 4 -13 10 -16 6 -3 7 1 4 9 -7 18 -14 21 -14 7z"/>
<path d="M2395 3340 c3 -5 8 -10 11 -10 2 0 4 5 4 10 0 6 -5 10 -11 10 -5 0
-7 -4 -4 -10z"/>
<path d="M1336 3304 c-4 -14 -5 -29 -2 -31 3 -3 8 7 12 21 3 15 4 29 1 32 -2
3 -8 -7 -11 -22z"/>
<path d="M2573 3295 c0 -22 2 -30 4 -17 2 12 2 30 0 40 -3 9 -5 -1 -4 -23z"/>
<path d="M2652 3305 c0 -16 2 -22 5 -12 2 9 2 23 0 30 -3 6 -5 -1 -5 -18z"/>
<path d="M1435 3280 c-3 -5 -1 -10 4 -10 6 0 11 5 11 10 0 6 -2 10 -4 10 -3 0
-8 -4 -11 -10z"/>
<path d="M1462 3255 c0 -16 2 -22 5 -12 2 9 2 23 0 30 -3 6 -5 -1 -5 -18z"/>
<path d="M1352 3240 c0 -14 2 -19 5 -12 2 6 2 18 0 25 -3 6 -5 1 -5 -13z"/>
<path d="M2820 3236 c0 -2 8 -10 18 -17 15 -13 16 -12 3 4 -13 16 -21 21 -21
13z"/>
<path d="M1445 3200 c3 -5 8 -10 11 -10 2 0 4 5 4 10 0 6 -5 10 -11 10 -5 0
-7 -4 -4 -10z"/>
<path d="M2223 3174 c-3 -8 -1 -25 4 -37 8 -18 10 -16 9 16 -1 41 -4 45 -13
21z"/>
<path d="M2896 3129 c3 -19 9 -47 13 -64 3 -16 4 -43 2 -60 -3 -24 -7 -17 -16
35 l-12 65 2 -78 c3 -72 6 -83 38 -130 20 -29 53 -69 74 -89 l39 -38 -39 79
c-21 44 -51 129 -66 190 -27 108 -48 160 -35 90z"/>
<path d="M2365 3109 c-4 -6 -5 -12 -2 -15 2 -3 7 2 10 11 7 17 1 20 -8 4z"/>
<path d="M1487 3063 c-4 -3 -7 -11 -7 -17 0 -6 5 -5 12 2 6 6 9 14 7 17 -3 3
-9 2 -12 -2z"/>
<path d="M1010 2948 c-51 -127 -92 -188 -181 -265 -71 -63 -189 -143 -237
-162 -52 -22 -31 -23 29 -2 78 26 156 67 217 112 28 22 52 37 52 34 0 -3 -18
-41 -40 -85 -44 -87 -46 -95 -27 -84 7 4 9 3 4 -2 -5 -5 -12 -9 -17 -9 -4 0
-29 -31 -54 -70 l-47 -70 75 80 c41 44 75 85 75 90 1 17 54 113 78 142 23 28
23 28 14 3 -5 -14 -19 -49 -31 -78 -12 -30 -19 -56 -17 -59 6 -5 95 221 127
322 13 41 23 100 24 143 1 39 2 72 1 72 -1 0 -21 -50 -45 -112z m-9 -141 c-10
-9 -11 -8 -5 6 3 10 9 15 12 12 3 -3 0 -11 -7 -18z m-17 -56 c-4 -17 -9 -30
-11 -27 -3 2 -2 19 2 36 9 41 17 33 9 -9z m-114 -54 c0 -2 -10 -12 -22 -23
l-23 -19 19 23 c18 21 26 27 26 19z m-50 -57 c0 -5 -7 -10 -16 -10 -8 0 -13
-4 -10 -9 5 -8 -113 -76 -120 -69 -2 2 13 13 34 23 20 11 42 25 47 31 10 11
57 44 62 44 2 0 3 -4 3 -10z"/>
<path d="M1480 2979 c0 -5 5 -7 10 -4 6 3 10 8 10 11 0 2 -4 4 -10 4 -5 0 -10
-5 -10 -11z"/>
<path d="M1893 2745 c9 -16 23 -39 32 -50 9 -11 7 -2 -6 20 -27 49 -47 72 -26
30z"/>
<path d="M1752 2580 c0 -14 2 -19 5 -12 2 6 2 18 0 25 -3 6 -5 1 -5 -13z"/>
<path d="M3444 2388 c62 -62 132 -135 155 -163 l43 -50 -23 43 c-12 23 -27 42
-33 42 -5 0 -6 3 -3 6 3 4 1 16 -4 27 -7 12 -14 16 -18 9 -4 -6 -26 9 -55 38
l-48 48 63 -3 c35 -2 133 -13 218 -25 84 -11 158 -19 165 -17 6 2 -16 7 -48
11 -115 15 -349 80 -508 141 -10 4 34 -44 96 -107z m-34 67 c7 -8 16 -12 21
-10 4 3 23 -1 41 -9 l33 -14 -38 4 c-34 2 -87 26 -87 39 0 10 18 4 30 -10z"/>
<path d="M1670 2480 c-19 -4 -28 -8 -20 -10 26 -4 65 1 75 11 10 10 -2 10 -55
-1z"/>
<path d="M866 2445 c-9 -26 -7 -32 5 -12 6 10 9 21 6 23 -2 3 -7 -2 -11 -11z"/>
<path d="M3510 2377 c0 -3 26 -20 58 -37 71 -40 153 -100 211 -154 24 -23 41
-36 38 -30 -4 7 0 15 9 18 8 3 13 2 10 -3 -3 -4 6 -13 20 -20 31 -14 37 -14
28 1 -5 7 -3 8 5 4 7 -5 10 -11 6 -14 -9 -9 85 -63 97 -56 6 4 8 3 4 -4 -3 -6
7 -20 23 -31 32 -23 46 -27 35 -9 -4 7 -3 8 5 4 6 -4 9 -11 7 -15 -3 -4 18
-30 46 -57 54 -52 92 -105 114 -163 l14 -36 -3 50 c-2 29 -15 73 -30 103 -82
163 -252 287 -543 396 -66 25 -127 48 -136 51 -10 4 -18 5 -18 2z m158 -66
c20 -10 55 -24 77 -30 45 -12 237 -116 281 -152 90 -74 186 -201 162 -215 -7
-4 -8 -3 -4 4 4 7 2 12 -3 12 -6 0 -11 7 -11 16 0 8 -4 12 -10 9 -6 -4 -7 1
-3 11 5 13 3 16 -10 11 -9 -3 -19 -1 -23 5 -4 7 -3 8 4 4 7 -4 12 -1 12 6 0
41 -215 204 -253 192 -13 -4 -17 -2 -13 5 5 7 1 9 -9 5 -8 -4 -21 -2 -28 4 -6
5 -23 13 -36 17 -18 6 -22 4 -15 -6 4 -8 -5 -4 -21 9 -17 13 -56 43 -89 68
-63 48 -66 54 -8 25z m552 -442 c15 -28 5 -23 -15 7 -9 15 -12 23 -6 20 6 -4
16 -16 21 -27z"/>
<path d="M3767 2259 c7 -7 15 -10 18 -7 3 3 -2 9 -12 12 -14 6 -15 5 -6 -5z"/>
<path d="M816 2325 c-9 -26 -7 -32 5 -12 6 10 9 21 6 23 -2 3 -7 -2 -11 -11z"/>
<path d="M3928 2333 c6 -2 18 -2 25 0 6 3 1 5 -13 5 -14 0 -19 -2 -12 -5z"/>
<path d="M3988 2323 c6 -2 18 -2 25 0 6 3 1 5 -13 5 -14 0 -19 -2 -12 -5z"/>
<path d="M4035 2315 c6 -2 28 -9 50 -14 22 -6 66 -26 98 -45 49 -30 57 -32 57
-16 0 19 -33 35 -129 64 -46 13 -107 22 -76 11z"/>
<path d="M1968 2303 c6 -2 18 -2 25 0 6 3 1 5 -13 5 -14 0 -19 -2 -12 -5z"/>
<path d="M659 2283 c-13 -16 -12 -17 4 -4 9 7 17 15 17 17 0 8 -8 3 -21 -13z"/>
<path d="M791 2263 c-10 -26 -10 -27 4 -9 8 11 15 23 15 28 0 15 -7 8 -19 -19z"/>
<path d="M1853 2245 c0 -22 2 -30 4 -17 2 12 2 30 0 40 -3 9 -5 -1 -4 -23z"/>
<path d="M3086 2268 c5 -7 27 -43 51 -80 24 -36 41 -73 38 -80 -6 -16 78 -89
137 -119 69 -35 307 -105 287 -84 -4 3 -34 13 -68 21 -142 33 -253 83 -292
132 -11 15 -25 28 -30 28 -5 1 -13 2 -19 3 -5 0 -10 6 -10 12 0 8 5 8 15 -1 8
-7 15 -10 15 -6 0 8 -121 186 -126 186 -3 0 -2 -6 2 -12z"/>
<path d="M1111 2260 c-4 -47 -109 -340 -137 -381 -17 -26 -26 -45 -20 -43 15
6 69 99 87 148 7 20 17 36 21 36 4 0 8 15 8 33 0 19 11 67 25 108 14 41 24 83
22 94 -2 11 -5 13 -6 5z"/>
<path d="M615 2230 c-16 -16 -25 -30 -19 -29 8 0 60 59 52 59 -3 0 -17 -13
-33 -30z"/>
<path d="M3052 2185 c0 -16 2 -22 5 -12 2 9 2 23 0 30 -3 6 -5 -1 -5 -18z"/>
<path d="M539 2138 c-23 -29 -46 -63 -52 -75 -5 -12 -14 -20 -18 -17 -5 3 -6
-2 -3 -11 4 -10 2 -15 -6 -13 -17 4 -111 -120 -152 -200 -44 -88 -51 -186 -17
-258 l23 -49 6 75 c6 63 33 157 84 295 4 11 0 7 -9 -9 -38 -65 -96 -270 -88
-309 3 -16 2 -18 -5 -7 -13 21 -22 101 -11 94 5 -3 9 16 10 43 0 70 2 92 10
87 4 -2 11 10 14 28 8 33 85 161 106 174 9 5 10 2 6 -9 -20 -50 -15 -45 25 23
24 42 63 102 87 133 52 72 46 75 -10 5z m-87 -140 c-7 -7 -12 -8 -12 -2 0 14
12 26 19 19 2 -3 -1 -11 -7 -17z m-165 -310 c-3 -8 -6 -5 -6 6 -1 11 2 17 5
13 3 -3 4 -12 1 -19z"/>
<path d="M3063 2137 c4 -10 7 -27 7 -36 0 -10 6 -18 14 -18 13 0 12 5 -1 31
-18 37 -29 49 -20 23z"/>
<path d="M3650 2145 c0 -5 5 -17 10 -25 5 -8 10 -10 10 -5 0 6 -5 17 -10 25
-5 8 -10 11 -10 5z"/>
<path d="M707 2126 c-4 -10 -7 -25 -6 -34 0 -11 4 -9 10 7 5 13 8 29 6 35 -2
5 -6 2 -10 -8z"/>
<path d="M3110 2134 c0 -7 7 -27 15 -45 8 -19 14 -29 15 -23 0 7 -7 27 -15 45
-8 19 -14 29 -15 23z"/>
<path d="M2220 2099 c-22 -18 -22 -19 -3 -10 12 6 25 16 28 21 9 15 3 12 -25
-11z"/>
<path d="M1714 2101 c7 -11 46 -35 46 -28 0 3 -12 12 -26 22 -15 9 -23 12 -20
6z"/>
<path d="M3681 2075 c1 -19 18 -51 18 -35 0 8 -4 22 -9 30 -5 8 -9 11 -9 5z"/>
<path d="M3067 2047 c-7 -25 -3 -35 30 -71 43 -47 188 -163 277 -222 189 -125
326 -211 311 -196 -5 6 -75 53 -155 106 -245 160 -311 208 -381 278 -52 51
-68 74 -71 100 l-3 33 -8 -28z"/>
<path d="M3149 2037 c15 -19 131 -77 152 -77 8 1 -13 12 -46 26 -33 14 -67 32
-75 38 -8 7 -22 17 -30 21 -13 8 -13 7 -1 -8z"/>
<path d="M773 1970 c0 -30 2 -43 4 -27 2 15 2 39 0 55 -2 15 -4 2 -4 -28z"/>
<path d="M3701 2004 c0 -11 3 -14 6 -6 3 7 2 16 -1 19 -3 4 -6 -2 -5 -13z"/>
<path d="M2026 1988 c-33 -17 -45 -19 -74 -10 -38 12 -32 2 9 -15 22 -10 33
-7 68 13 22 14 41 27 41 30 0 6 0 6 -44 -18z"/>
<path d="M681 1964 c0 -11 3 -14 6 -6 3 7 2 16 -1 19 -3 4 -6 -2 -5 -13z"/>
<path d="M1361 1949 c-18 -17 -31 -33 -29 -35 3 -2 20 12 38 31 42 43 35 46
-9 4z"/>
<path d="M3711 1964 c0 -11 3 -14 6 -6 3 7 2 16 -1 19 -3 4 -6 -2 -5 -13z"/>
<path d="M671 1924 c0 -11 3 -14 6 -6 3 7 2 16 -1 19 -3 4 -6 -2 -5 -13z"/>
<path d="M3722 1920 c0 -14 2 -19 5 -12 2 6 2 18 0 25 -3 6 -5 1 -5 -13z"/>
<path d="M772 1880 c0 -14 2 -19 5 -12 2 6 2 18 0 25 -3 6 -5 1 -5 -13z"/>
<path d="M2881 1884 c0 -11 3 -14 6 -6 3 7 2 16 -1 19 -3 4 -6 -2 -5 -13z"/>
<path d="M3670 1890 c8 -5 22 -9 30 -9 10 0 8 3 -5 9 -27 12 -43 12 -25 0z"/>
<path d="M1436 1865 c-9 -26 -7 -32 5 -12 6 10 9 21 6 23 -2 3 -7 -2 -11 -11z"/>
<path d="M1060 1850 c-6 -11 -8 -20 -6 -20 3 0 10 9 16 20 6 11 8 20 6 20 -3
0 -10 -9 -16 -20z"/>
<path d="M2872 1830 c0 -14 2 -19 5 -12 2 6 2 18 0 25 -3 6 -5 1 -5 -13z"/>
<path d="M3056 1813 c15 -21 52 -63 82 -93 l55 -55 -49 60 c-27 33 -57 68 -66
79 -10 11 -18 23 -18 27 0 4 -7 10 -16 13 -11 4 -8 -6 12 -31z"/>
<path d="M3950 1845 c0 -5 5 -17 10 -25 5 -8 10 -10 10 -5 0 6 -5 17 -10 25
-5 8 -10 11 -10 5z"/>
<path d="M651 1824 c0 -11 3 -14 6 -6 3 7 2 16 -1 19 -3 4 -6 -2 -5 -13z"/>
<path d="M575 1789 c-9 -17 -15 -37 -13 -45 2 -8 10 5 19 30 19 53 16 59 -6
15z"/>
<path d="M885 1768 c-34 -35 -39 -43 -16 -24 31 25 77 76 69 76 -2 0 -26 -23
-53 -52z"/>
<path d="M1020 1780 c-6 -11 -8 -20 -6 -20 3 0 10 9 16 20 6 11 8 20 6 20 -3
0 -10 -9 -16 -20z"/>
<path d="M1376 1778 c-3 -13 -5 -32 -5 -43 1 -11 5 -2 10 19 10 42 6 62 -5 24z"/>
<path d="M2861 1784 c0 -11 3 -14 6 -6 3 7 2 16 -1 19 -3 4 -6 -2 -5 -13z"/>
<path d="M3946 1787 c3 -10 9 -15 12 -12 3 3 0 11 -7 18 -10 9 -11 8 -5 -6z"/>
<path d="M782 1765 c0 -16 2 -22 5 -12 2 9 2 23 0 30 -3 6 -5 -1 -5 -18z"/>
<path d="M546 1695 c-3 -9 -6 -22 -5 -28 0 -7 5 -1 10 12 5 13 8 26 5 28 -2 2
-6 -3 -10 -12z"/>
<path d="M939 1663 c-13 -16 -12 -17 4 -4 9 7 17 15 17 17 0 8 -8 3 -21 -13z"/>
<path d="M3997 1665 c5 -11 18 -51 28 -88 9 -37 20 -66 22 -63 10 9 -29 145
-45 158 -13 11 -14 10 -5 -7z"/>
<path d="M2807 1628 c-9 -23 -15 -43 -13 -45 2 -2 11 15 20 38 9 23 15 43 13
45 -2 2 -11 -15 -20 -38z"/>
<path d="M3201 1655 c2 -5 35 -39 72 -75 37 -35 65 -58 61 -50 -8 17 -139 140
-133 125z"/>
<path d="M879 1593 c-13 -16 -12 -17 4 -4 9 7 17 15 17 17 0 8 -8 3 -21 -13z"/>
<path d="M476 1509 c-3 -17 -5 -61 -5 -98 2 -62 2 -61 10 29 8 99 6 123 -5 69z"/>
<path d="M1381 1524 c0 -11 3 -14 6 -6 3 7 2 16 -1 19 -3 4 -6 -2 -5 -13z"/>
<path d="M2745 1500 c-9 -16 -13 -30 -11 -30 3 0 12 14 21 30 9 17 13 30 11
30 -3 0 -12 -13 -21 -30z"/>
<path d="M3425 1445 c179 -175 470 -397 540 -410 24 -4 26 -4 9 4 -37 17 -167
102 -264 174 -87 65 -173 137 -305 257 -28 25 -19 14 20 -25z"/>
<path d="M4057 1460 c8 -52 11 -81 13 -130 2 -33 3 -32 10 12 6 36 4 61 -11
105 -18 57 -18 57 -12 13z"/>
<path d="M1391 1474 c0 -11 3 -14 6 -6 3 7 2 16 -1 19 -3 4 -6 -2 -5 -13z"/>
<path d="M2705 1434 c-9 -15 -12 -23 -6 -20 11 7 35 46 28 46 -3 0 -12 -12
-22 -26z"/>
<path d="M1402 1415 c0 -16 2 -22 5 -12 2 9 2 23 0 30 -3 6 -5 -1 -5 -18z"/>
<path d="M2590 1295 c-24 -25 -42 -45 -39 -45 3 0 25 20 49 45 24 25 42 45 39
45 -3 0 -25 -20 -49 -45z"/>
<path d="M1068 1323 c7 -3 16 -2 19 1 4 3 -2 6 -13 5 -11 0 -14 -3 -6 -6z"/>
<path d="M1300 1297 l34 -37 -47 16 c-27 9 -50 14 -52 12 -2 -2 26 -14 64 -27
47 -16 72 -31 84 -49 12 -20 17 -23 17 -9 0 9 -3 17 -7 17 -5 0 -13 11 -19 24
-9 20 -9 23 2 19 8 -3 14 -11 14 -19 0 -8 5 -14 10 -14 21 0 9 26 -21 42 -16
10 -27 13 -24 8 11 -18 -7 -10 -49 22 l-41 32 35 -37z"/>
<path d="M4104 1300 c3 -19 12 -66 20 -105 19 -86 21 -174 4 -180 -7 -2 -57
-9 -111 -15 -81 -8 -103 -8 -134 5 -20 8 -38 13 -41 11 -2 -3 13 -12 34 -21
30 -12 55 -14 128 -8 50 4 101 7 114 7 16 -1 24 6 29 24 9 37 -4 157 -27 242
-11 41 -18 59 -16 40z"/>
<path d="M1109 1311 c9 -6 10 -10 2 -12 -6 -2 16 -4 49 -4 64 -1 55 8 -19 18
-25 3 -39 2 -32 -2z"/>
<path d="M1402 1290 c0 -14 2 -19 5 -12 2 6 2 18 0 25 -3 6 -5 1 -5 -13z"/>
<path d="M2991 1284 c-25 -8 -49 -18 -54 -23 -7 -7 76 16 118 33 25 10 -25 3
-64 -10z"/>
<path d="M3094 1275 c11 -8 30 -15 43 -15 13 0 23 -3 23 -7 0 -5 -56 -9 -125
-9 -69 -1 -125 3 -125 8 0 16 -92 -95 -106 -128 -23 -55 -15 -52 14 5 45 89
51 83 89 -94 21 -96 20 -358 -1 -490 -31 -190 -101 -406 -159 -489 l-20 -28
-64 128 -65 128 17 88 c10 49 16 91 13 93 -3 3 -11 -28 -18 -67 -7 -40 -16
-83 -21 -95 -6 -17 0 -37 29 -85 21 -35 51 -92 67 -128 42 -93 48 -98 74 -61
34 47 85 165 121 276 44 140 70 288 77 443 l6 133 29 -68 c16 -37 47 -125 69
-194 46 -149 106 -316 179 -491 41 -101 56 -128 71 -128 15 0 17 4 10 17 -23
44 -51 111 -51 124 0 11 -2 12 -9 1 -6 -10 -10 -9 -14 7 -3 12 -1 19 4 16 4
-3 -1 17 -13 45 -11 27 -25 50 -29 50 -5 0 -9 7 -9 15 0 9 -8 30 -17 48 -9 18
-19 43 -21 57 -2 13 -7 27 -11 30 -15 10 -103 279 -97 295 3 9 2 13 -3 10 -10
-5 -15 35 -27 180 -3 44 -10 100 -15 125 -6 25 -14 73 -18 108 l-7 62 33 0
c18 0 33 -2 33 -3 0 -5 46 -244 60 -312 20 -98 99 -404 120 -465 4 -14 30 -96
56 -183 26 -86 49 -155 51 -153 2 2 -6 36 -18 75 -11 40 -19 74 -17 76 2 2 35
-47 72 -110 38 -63 75 -115 82 -115 20 0 18 6 -16 67 -17 29 -28 53 -25 53 3
0 -13 36 -35 80 -22 44 -38 80 -36 80 3 0 40 -63 83 -140 43 -77 82 -140 87
-140 5 0 15 8 23 18 14 16 14 16 9 -3 -5 -17 -3 -16 13 4 l19 24 6 -21 c4 -12
11 -22 16 -22 4 0 -6 26 -23 57 -36 70 -40 74 -37 48 1 -11 1 -24 0 -30 -2 -5
-3 -19 -4 -29 -1 -11 -6 -21 -13 -23 -8 -3 -10 6 -7 29 4 25 0 39 -15 57 -12
14 -19 31 -17 38 6 15 -10 18 -19 3 -6 -10 24 -72 38 -78 4 -2 7 -11 7 -19 0
-9 -3 -13 -7 -9 -26 25 -248 464 -312 614 -46 110 -61 183 -76 387 -3 39 -8
84 -11 101 -3 22 0 33 10 37 11 5 18 -5 26 -36 40 -153 53 -197 57 -193 4 3
-36 164 -64 260 -5 18 -1 19 98 12 56 -3 101 -4 98 -2 -5 5 -234 66 -246 66
-5 0 1 -7 11 -15z m103 -31 c-3 -3 -12 -4 -19 -1 -8 3 -5 6 6 6 11 1 17 -2 13
-5z m20 -706 c-3 -8 -6 -5 -6 6 -1 11 2 17 5 13 3 -3 4 -12 1 -19z m13 -333
c0 -5 -5 -3 -10 5 -5 8 -10 20 -10 25 0 6 5 3 10 -5 5 -8 10 -19 10 -25z m323
-142 c-4 -11 -3 -14 5 -9 7 4 12 3 12 -3 0 -5 -4 -12 -9 -15 -11 -7 -23 22
-15 35 9 15 14 10 7 -8z"/>
<path d="M4082 1270 c0 -14 2 -19 5 -12 2 6 2 18 0 25 -3 6 -5 1 -5 -13z"/>
<path d="M884 1233 c-80 -28 -101 -39 -97 -52 12 -47 -229 -672 -377 -978 -61
-126 -91 -198 -80 -191 10 7 16 18 12 26 -3 10 -1 13 6 9 6 -5 27 22 51 67 43
77 48 92 29 80 -7 -4 -8 -3 -4 5 4 6 11 9 16 6 11 -7 92 144 84 157 -5 7 -2 8
6 3 10 -6 12 -4 7 9 -4 9 -3 15 2 12 9 -6 85 134 77 142 -3 2 -17 -22 -31 -53
-14 -32 -28 -56 -30 -53 -3 3 4 26 15 52 12 25 18 51 14 58 -4 6 -3 8 3 5 6
-4 14 0 17 9 3 8 2 12 -4 9 -6 -3 -10 -3 -10 0 0 12 52 140 61 149 5 6 9 18 9
27 0 10 3 19 8 21 4 2 22 35 40 73 54 113 95 176 105 162 5 -7 6 -4 2 9 -6 25
67 161 84 157 6 -2 11 1 11 6 0 5 9 11 20 14 25 6 25 8 -2 -75 -15 -46 -25
-64 -31 -55 -6 8 -7 6 -3 -7 3 -10 -8 -63 -25 -118 -17 -55 -29 -102 -27 -104
3 -2 29 72 58 164 l54 167 7 -80 c20 -227 48 -820 49 -1042 0 -13 5 -23 12
-23 13 0 5 522 -12 755 -5 72 -10 217 -11 323 -1 106 -5 192 -8 191 -3 0 -52
-16 -107 -36z m103 -295 c-3 -8 -6 -5 -6 6 -1 11 2 17 5 13 3 -3 4 -12 1 -19z
m-525 -690 c-8 -8 -9 -4 -5 13 4 13 8 18 11 10 2 -7 -1 -18 -6 -23z"/>
<path d="M1818 1243 c7 -3 16 -2 19 1 4 3 -2 6 -13 5 -11 0 -14 -3 -6 -6z"/>
<path d="M1470 1237 c0 -2 15 -16 33 -33 l32 -29 -29 33 c-28 30 -36 37 -36
29z"/>
<path d="M2490 1220 c-9 -6 -10 -10 -3 -10 6 0 15 5 18 10 8 12 4 12 -15 0z"/>
<path d="M481 1173 c0 -28 2 -54 7 -57 4 -2 6 14 4 37 -5 68 -10 76 -11 20z"/>
<path d="M630 1144 c-39 -14 -55 -23 -40 -23 14 0 48 11 75 24 64 30 48 30
-35 -1z"/>
<path d="M1401 1154 c0 -11 3 -14 6 -6 3 7 2 16 -1 19 -3 4 -6 -2 -5 -13z"/>
<path d="M1571 1133 c1 -5 27 -30 58 -58 l56 -49 -55 57 c-55 58 -61 63 -59
50z"/>
<path d="M528 1113 c6 -2 18 -2 25 0 6 3 1 5 -13 5 -14 0 -19 -2 -12 -5z"/>
<path d="M2100 1070 c-46 -21 -87 -45 -89 -52 -3 -10 -1 -10 10 -1 8 7 53 30
100 52 46 22 80 39 74 39 -5 0 -48 -17 -95 -38z"/>
<path d="M3680 1089 c164 -80 166 -81 123 -45 -15 12 -53 31 -83 41 -84 27
-89 28 -40 4z"/>
<path d="M2191 955 l2 -90 8 80 c4 47 3 84 -2 90 -5 5 -8 -26 -8 -80z"/>
<path d="M4008 1013 c7 -3 16 -2 19 1 4 3 -2 6 -13 5 -11 0 -14 -3 -6 -6z"/>
<path d="M1720 997 c0 -2 14 -16 31 -33 22 -20 28 -23 19 -8 -11 18 -50 50
-50 41z"/>
<path d="M1989 983 c-13 -16 -12 -17 4 -4 16 13 21 21 13 21 -2 0 -10 -8 -17
-17z"/>
<path d="M1571 954 c0 -21 4 -59 9 -84 6 -34 7 -25 3 35 -6 84 -14 115 -12 49z"/>
<path d="M790 946 c-5 -15 -10 -33 -10 -39 0 -15 -52 -139 -114 -271 -25 -54
-43 -102 -41 -107 3 -4 -8 -48 -24 -96 -33 -97 -121 -401 -121 -419 0 -17 28
-13 36 5 3 9 26 72 49 141 63 185 75 217 98 270 9 19 19 49 23 65 4 17 18 52
31 79 13 26 20 45 14 41 -15 -8 -14 -3 4 43 9 22 15 43 14 48 -1 5 3 22 9 37
18 44 13 46 -9 4 -11 -21 -17 -42 -14 -46 2 -5 -2 -12 -11 -15 -12 -4 -14 -16
-11 -49 6 -47 -5 -81 -16 -52 -4 9 -3 13 3 10 5 -3 7 9 4 31 -3 28 6 62 35
133 49 122 75 201 67 208 -3 3 -10 -6 -16 -21z m-283 -908 c-3 -8 -6 -5 -6 6
-1 11 2 17 5 13 3 -3 4 -12 1 -19z"/>
<path d="M2736 945 c-3 -9 -6 -22 -5 -28 0 -7 5 -1 10 12 5 13 8 26 5 28 -2 2
-6 -3 -10 -12z"/>
<path d="M1950 920 c-6 -11 -8 -20 -6 -20 3 0 10 9 16 20 6 11 8 20 6 20 -3 0
-10 -9 -16 -20z"/>
<path d="M3211 903 c-1 -15 67 -223 80 -243 8 -12 9 -11 5 5 -14 50 -85 249
-85 238z"/>
<path d="M2716 885 c-3 -9 -6 -22 -5 -28 0 -7 5 -1 10 12 5 13 8 26 5 28 -2 2
-6 -3 -10 -12z"/>
<path d="M2690 790 c-7 -28 -10 -53 -8 -55 3 -3 10 18 16 47 7 28 11 53 8 55
-2 2 -9 -19 -16 -47z"/>
<path d="M1412 800 c0 -19 2 -27 5 -17 2 9 2 25 0 35 -3 9 -5 1 -5 -18z"/>
<path d="M751 534 c-45 -146 -81 -267 -79 -270 2 -2 41 116 87 262 45 146 81
268 78 270 -2 2 -41 -116 -86 -262z"/>
<path d="M1591 754 c0 -11 3 -14 6 -6 3 7 2 16 -1 19 -3 4 -6 -2 -5 -13z"/>
<path d="M2182 740 c0 -14 2 -19 5 -12 2 6 2 18 0 25 -3 6 -5 1 -5 -13z"/>
<path d="M2666 698 c-3 -13 -5 -34 -5 -48 1 -15 5 -7 10 19 9 47 6 68 -5 29z"/>
<path d="M2182 670 c0 -19 2 -27 5 -17 2 9 2 25 0 35 -3 9 -5 1 -5 -18z"/>
<path d="M2250 632 c-19 -26 -42 -53 -50 -62 -24 -25 -71 -100 -63 -100 5 0
17 15 28 33 l19 32 8 -180 c11 -261 16 -274 10 -24 l-5 217 48 61 c26 34 46
64 44 66 -2 2 -20 -18 -39 -43z"/>
<path d="M1422 635 c0 -16 2 -22 5 -12 2 9 2 23 0 30 -3 6 -5 -1 -5 -18z"/>
<path d="M3302 630 c24 -64 61 -150 64 -147 5 4 -53 148 -63 156 -3 3 -4 -1
-1 -9z"/>
<path d="M2646 584 c-4 -20 -5 -38 -3 -40 3 -3 8 11 11 32 4 20 5 38 3 40 -3
3 -8 -11 -11 -32z"/>
<path d="M2181 584 c0 -11 3 -14 6 -6 3 7 2 16 -1 19 -3 4 -6 -2 -5 -13z"/>
<path d="M1432 535 c0 -16 2 -22 5 -12 2 9 2 23 0 30 -3 6 -5 -1 -5 -18z"/>
<path d="M2632 505 c0 -16 2 -22 5 -12 2 9 2 23 0 30 -3 6 -5 -1 -5 -18z"/>
<path d="M1442 460 c0 -14 2 -19 5 -12 2 6 2 18 0 25 -3 6 -5 1 -5 -13z"/>
<path d="M3380 441 c0 -6 4 -13 10 -16 6 -3 7 1 4 9 -7 18 -14 21 -14 7z"/>
<path d="M1842 410 c0 -19 2 -27 5 -17 2 9 2 25 0 35 -3 9 -5 1 -5 -18z"/>
<path d="M1614 221 c3 -118 9 -217 12 -220 3 -3 3 91 -1 209 -4 118 -10 217
-13 220 -2 3 -2 -91 2 -209z"/>
<path d="M1452 380 c0 -19 2 -27 5 -17 2 9 2 25 0 35 -3 9 -5 1 -5 -18z"/>
<path d="M3406 387 c3 -10 9 -15 12 -12 3 3 0 11 -7 18 -10 9 -11 8 -5 -6z"/>
<path d="M2546 330 c15 -22 29 -38 31 -36 5 5 -46 76 -53 76 -3 0 8 -18 22
-40z"/>
<path d="M1893 310 c0 -30 2 -43 4 -27 2 15 2 39 0 55 -2 15 -4 2 -4 -28z"/>
<path d="M3350 345 c0 -8 4 -15 10 -15 5 0 7 7 4 15 -4 8 -8 15 -10 15 -2 0
-4 -7 -4 -15z"/>
<path d="M3374 293 c9 -18 21 -33 26 -33 17 0 11 16 -16 41 l-27 24 17 -32z"/>
<path d="M1853 235 c0 -44 2 -61 4 -37 2 23 2 59 0 80 -2 20 -4 1 -4 -43z"/>
<path d="M3414 247 c-3 -8 6 -32 19 -55 18 -32 26 -39 35 -30 17 17 15 39 -6
68 -20 29 -40 36 -48 17z m36 -27 c0 12 3 11 11 -3 6 -10 8 -26 4 -35 -5 -14
-10 -10 -25 18 -22 41 -26 67 -5 30 9 -15 15 -19 15 -10z"/>
<path d="M656 224 c-4 -14 -5 -28 -3 -31 3 -2 8 8 11 23 4 14 5 28 3 31 -3 2
-8 -8 -11 -23z"/>
<path d="M1446 154 c-3 -26 -4 -49 -2 -52 3 -2 8 17 11 43 4 25 5 48 3 51 -3
2 -8 -17 -12 -42z"/>
<path d="M1902 170 c0 -19 2 -27 5 -17 2 9 2 25 0 35 -3 9 -5 1 -5 -18z"/>
<path d="M3499 193 c-7 -44 -6 -63 1 -63 5 0 10 6 13 13 2 6 3 3 1 -8 -2 -11
2 -27 7 -35 9 -12 10 -10 6 8 -3 12 -1 22 4 22 6 0 5 9 -1 20 -6 11 -16 18
-22 14 -6 -4 -8 1 -3 15 3 11 4 21 1 21 -3 0 -7 -3 -7 -7z"/>
<path d="M620 100 c-12 -45 -20 -84 -17 -86 2 -2 14 33 26 77 12 45 20 84 17
86 -2 2 -13 -33 -26 -77z"/>
<path d="M2380 146 c0 -6 177 -146 185 -146 3 0 -9 13 -27 28 -51 43 -158 124
-158 118z"/>
<path d="M1861 84 c0 -27 4 -58 9 -69 4 -12 6 7 3 45 -7 79 -13 92 -12 24z"/>
<path d="M2213 60 c0 -30 2 -43 4 -28 2 16 2 40 0 55 -2 16 -4 3 -4 -27z"/>
<path d="M1431 74 c0 -11 3 -14 6 -6 3 7 2 16 -1 19 -3 4 -6 -2 -5 -13z"/>
<path d="M1913 55 c0 -22 2 -30 4 -17 2 12 2 30 0 40 -3 9 -5 -1 -4 -23z"/>
<path d="M3341 50 c0 -8 4 -24 9 -35 5 -13 9 -14 9 -5 0 8 -4 24 -9 35 -5 13
-9 14 -9 5z"/>
<path d="M1421 34 c0 -11 3 -14 6 -6 3 7 2 16 -1 19 -3 4 -6 -2 -5 -13z"/>
</g>
</svg>
